# xmcd CD database file
# Copyright (C) 1993-1998 Ti Kan
# 
# Track frame offsets:
#     182
#     27810
#     54070
#     71877
#     90235
#     114895
#     140287
#     158227
# 
# Disc length: 2428 seconds
# 
# Revision: 1
# Processed by: cddbd v1.4b41PL1 Copyright (c) Steve Scherf et al.
# Submitted via: DiscPlay 4.0.4
# 
DISCID=57097a08
DTITLE=Memphis la Blusera - La blusera nunca tuve tanto blues
DYEAR=1900
DGENRE=
TTITLE0=Boogie de la valija
TTITLE1=Blues del arbol
TTITLE2=Gin y cerveza
TTITLE3=Blues del tren
TTITLE4=Nunca tuve tanto Blues
TTITLE5=Exactamente medianoche
TTITLE6=Palido y duro
TTITLE7=A punto de estallar de amor
EXTD=
EXTT0=
EXTT1=
EXTT2=
EXTT3=
EXTT4=
EXTT5=
EXTT6=
EXTT7=
PLAYORDER=
